<?xml version="1.0" encoding="UTF-8" standalone="no"?>
<!-- Created with Inkscape (http://www.inkscape.org/) -->

<svg
   xmlns:dc="http://purl.org/dc/elements/1.1/"
   xmlns:cc="http://creativecommons.org/ns#"
   xmlns:rdf="http://www.w3.org/1999/02/22-rdf-syntax-ns#"
   xmlns:svg="http://www.w3.org/2000/svg"
   xmlns="http://www.w3.org/2000/svg"
   xmlns:sodipodi="http://sodipodi.sourceforge.net/DTD/sodipodi-0.dtd"
   xmlns:inkscape="http://www.inkscape.org/namespaces/inkscape"
   width="207.3632pt"
   height="84.864967pt"
   viewBox="0 0 73.15313 29.938475"
   version="1.1"
   id="svg841"
   inkscape:version="0.92.5 (2060ec1f9f, 2020-04-08)"
   sodipodi:docname="logo-green.svg">
  <defs
     id="defs835" />
  <sodipodi:namedview
     id="base"
     pagecolor="#ffffff"
     bordercolor="#666666"
     borderopacity="1.0"
     inkscape:pageopacity="0.0"
     inkscape:pageshadow="2"
     inkscape:zoom="3.959798"
     inkscape:cx="140.44574"
     inkscape:cy="33.838276"
     inkscape:document-units="mm"
     inkscape:current-layer="layer1"
     showgrid="false"
     fit-margin-top="0"
     fit-margin-left="0"
     fit-margin-right="0"
     fit-margin-bottom="0"
     inkscape:window-width="1920"
     inkscape:window-height="1043"
     inkscape:window-x="0"
     inkscape:window-y="0"
     inkscape:window-maximized="1"
     units="px" />
  <metadata
     id="metadata838">
    <rdf:RDF>
      <cc:Work
         rdf:about="">
        <dc:format>image/svg+xml</dc:format>
        <dc:type
           rdf:resource="http://purl.org/dc/dcmitype/StillImage" />
        <dc:title></dc:title>
      </cc:Work>
    </rdf:RDF>
  </metadata>
  <g
     inkscape:label="Layer 1"
     inkscape:groupmode="layer"
     id="layer1"
     transform="translate(-10.729956,-10.135178)">
    <g
       aria-label="xemu"
       style="font-style:normal;font-weight:normal;font-size:63.40210724px;line-height:1.25;font-family:sans-serif;letter-spacing:0px;word-spacing:0px;display:inline;opacity:1;fill:#42e335;fill-opacity:1;stroke:none;stroke-width:0.59907502;stroke-miterlimit:4;stroke-dasharray:none;stroke-opacity:1"
       id="text879-9-3">
      <path
         d="m 24.08244,33.68272 q -0.380413,-0.760825 -0.951032,-1.673815 -0.532578,-0.912991 -1.179279,-1.864022 -0.646702,-0.989073 -1.369486,-1.940105 -0.684742,-0.951031 -1.369485,-1.787939 -0.684743,0.874949 -1.445568,1.82598 -0.760825,0.951032 -1.483609,1.940105 -0.684743,0.951032 -1.293403,1.864022 -0.608661,0.91299 -1.027114,1.635774 h -3.233508 q 1.255362,-2.282476 3.043301,-4.679075 1.825981,-2.434641 3.575879,-4.602993 l -6.352891,-8.369078 h 3.537838 l 4.755157,6.162685 4.374746,-6.162685 h 3.347631 l -5.820313,8.178872 q 1.711857,2.244434 3.423713,4.679075 1.749899,2.434641 2.967219,4.793199 z"
         style="font-style:normal;font-variant:normal;font-weight:normal;font-stretch:normal;font-size:38.04126358px;font-family:'ubuntu mono';-inkscape-font-specification:'ubuntu mono';fill:#42e335;fill-opacity:1;stroke:none;stroke-width:0.59907502;stroke-miterlimit:4;stroke-dasharray:none;stroke-opacity:1"
         id="path1469" />
      <path
         d="m 38.500006,15.61312 q 3.575879,0 5.515983,2.244435 1.940105,2.206393 1.940105,6.733303 v 1.103197 h -12.6297 q 0.190207,2.738971 1.78794,4.184539 1.635774,1.407527 4.564951,1.407527 1.673816,0 2.853095,-0.266289 1.179279,-0.266289 1.787939,-0.570619 l 0.418454,2.662888 q -0.570619,0.30433 -2.054228,0.646702 -1.483609,0.342371 -3.347631,0.342371 -2.282476,0 -4.032374,-0.684743 -1.711857,-0.722784 -2.853095,-1.940104 -1.141238,-1.217321 -1.711857,-2.891136 -0.570619,-1.711857 -0.570619,-3.690003 0,-2.358558 0.722784,-4.108456 0.722784,-1.749898 1.902064,-2.891136 1.179279,-1.141238 2.662888,-1.711857 1.483609,-0.570619 3.043301,-0.570619 z m 4.260622,7.53217 q 0,-2.244434 -1.17928,-3.537837 -1.179279,-1.331445 -3.119383,-1.331445 -1.103197,0 -2.016187,0.418454 -0.874949,0.418454 -1.521651,1.103197 -0.646701,0.684743 -1.027114,1.559692 -0.380412,0.874949 -0.494536,1.787939 z"
         style="font-style:normal;font-variant:normal;font-weight:normal;font-stretch:normal;font-size:38.04126358px;font-family:'ubuntu mono';-inkscape-font-specification:'ubuntu mono';fill:#42e335;fill-opacity:1;stroke:none;stroke-width:0.59907502;stroke-miterlimit:4;stroke-dasharray:none;stroke-opacity:1"
         id="path1471" />
      <path
         d="m 49.22757,16.52611 q 2.282476,-0.874949 4.298663,-0.874949 1.103196,0 2.054228,0.342372 0.989073,0.30433 1.673816,0.989072 1.635774,-1.331444 3.499796,-1.331444 0.91299,0 1.711857,0.342372 0.836907,0.342371 1.445568,1.027114 0.646701,0.684742 1.027114,1.711857 0.380412,1.027114 0.380412,2.396599 V 33.68272 H 62.46593 V 21.053021 q 0,-1.369486 -0.608661,-2.09227 -0.60866,-0.722784 -1.52165,-0.722784 -0.456495,0 -0.951032,0.228248 -0.494536,0.228247 -0.91299,0.722784 0.228248,0.874949 0.228248,1.940104 v 5.744231 H 55.84675 v -5.782272 q 0,-1.331444 -0.418454,-2.09227 -0.418454,-0.760825 -1.635774,-0.760825 -0.760826,0 -1.711857,0.342372 V 33.68272 H 49.22757 Z"
         style="font-style:normal;font-variant:normal;font-weight:normal;font-stretch:normal;font-size:38.04126358px;font-family:'ubuntu mono';-inkscape-font-specification:'ubuntu mono';fill:#42e335;fill-opacity:1;stroke:none;stroke-width:0.59907502;stroke-miterlimit:4;stroke-dasharray:none;stroke-opacity:1"
         id="path1473" />
      <path
         d="m 83.008138,33.188184 q -1.027114,0.266289 -2.738971,0.570619 -1.673816,0.30433 -3.956292,0.30433 -2.016187,0 -3.347631,-0.570619 -1.331444,-0.60866 -2.168352,-1.673816 -0.836908,-1.103196 -1.179279,-2.586806 -0.342372,-1.483609 -0.342372,-3.271548 v -9.92877 h 3.119384 v 9.244027 q 0,3.271549 0.951032,4.641034 0.989073,1.369486 3.271548,1.369486 0.494537,0 0.989073,-0.03804 0.532578,-0.03804 0.989073,-0.07608 0.456495,-0.07608 0.798867,-0.114124 0.342371,-0.07608 0.456495,-0.114124 V 16.031574 h 3.157425 z"
         style="font-style:normal;font-variant:normal;font-weight:normal;font-stretch:normal;font-size:38.04126358px;font-family:'ubuntu mono';-inkscape-font-specification:'ubuntu mono';fill:#42e335;fill-opacity:1;stroke:none;stroke-width:0.59907502;stroke-miterlimit:4;stroke-dasharray:none;stroke-opacity:1"
         id="path1475" />
    </g>
  </g>
</svg>
